<?xml version="1.0" standalone="no"?>
<!DOCTYPE svg PUBLIC "-//W3C//DTD SVG 20010904//EN"
 "http://www.w3.org/TR/2001/REC-SVG-20010904/DTD/svg10.dtd">
<svg version="1.0" xmlns="http://www.w3.org/2000/svg"
 width="36.000000pt" height="38.000000pt" viewBox="0 0 36.000000 38.000000"
 preserveAspectRatio="xMidYMid meet">

<g transform="translate(0.000000,38.000000) scale(0.100000,-0.100000)"
fill="#000000" stroke="none">
<path d="M76 357 c-27 -22 -29 -27 -23 -71 14 -103 90 -207 183 -251 34 -16
36 -16 70 7 41 28 42 37 8 77 -31 37 -46 39 -72 7 l-18 -24 -33 25 c-25 20
-81 107 -81 127 0 2 14 9 31 15 27 9 30 14 25 37 -9 34 -35 74 -50 74 -6 0
-24 -11 -40 -23z"/>
<path d="M170 362 c0 -6 15 -14 33 -17 84 -18 145 -97 134 -176 -6 -44 9 -64
19 -24 17 66 -25 161 -86 198 -33 20 -100 33 -100 19z"/>
<path d="M10 245 c-28 -85 15 -190 93 -226 45 -20 112 -25 122 -9 4 6 -9 10
-33 10 -110 0 -199 117 -163 213 5 13 6 29 1 37 -5 8 -12 0 -20 -25z"/>
</g>
</svg>
