<?xml version="1.0" standalone="no"?>
<!DOCTYPE svg PUBLIC "-//W3C//DTD SVG 20010904//EN"
 "http://www.w3.org/TR/2001/REC-SVG-20010904/DTD/svg10.dtd">
<svg version="1.0" xmlns="http://www.w3.org/2000/svg"
 width="500.000000pt" height="500.000000pt" viewBox="0 0 500.000000 500.000000"
 preserveAspectRatio="xMidYMid meet">

<g transform="translate(0.000000,500.000000) scale(0.100000,-0.100000)"
fill="#000000" stroke="none">
<path d="M42 4964 l-42 -36 0 -219 0 -219 249 0 249 0 56 -105 c31 -57 63
-126 72 -152 9 -26 52 -122 97 -213 44 -91 133 -273 197 -406 65 -132 121
-251 124 -265 4 -13 86 -187 183 -386 l176 -362 -68 -113 c-201 -332 -235
-390 -260 -438 -73 -145 -90 -334 -42 -476 49 -143 179 -259 346 -308 49 -14
212 -16 1575 -16 837 0 1527 4 1534 8 9 7 12 64 10 253 l-3 244 -1459 3
c-1058 1 -1463 5 -1473 13 -23 20 -14 62 32 138 24 40 75 134 112 207 l68 134
90 1 c50 0 486 1 970 2 l880 2 90 29 c82 27 95 35 148 90 34 36 82 102 114
161 31 55 75 132 98 170 62 103 148 259 192 350 21 44 67 130 102 190 170 295
237 413 309 551 90 172 170 310 207 358 34 44 36 152 4 206 -31 52 -69 89
-114 113 l-40 21 -1791 -3 c-985 -2 -1836 0 -1892 4 l-101 8 -6 29 c-8 33 -87
216 -109 251 -8 12 -33 66 -56 120 l-43 97 -372 0 -371 0 -42 -36z"/>
<path d="M1400 995 c-100 -27 -214 -91 -264 -146 -57 -63 -110 -172 -127 -257
-25 -133 15 -307 91 -396 124 -145 247 -201 425 -194 96 3 107 6 180 43 142
72 250 207 285 354 43 183 -62 432 -222 527 -126 73 -259 99 -368 69z"/>
<path d="M3890 995 c-125 -35 -238 -110 -299 -199 -88 -128 -111 -313 -58
-476 25 -79 33 -92 98 -158 116 -116 220 -162 369 -162 108 0 176 20 260 75
145 95 240 260 240 420 0 211 -147 417 -348 486 -78 27 -193 33 -262 14z"/>
</g>
</svg>
